<svg xmlns="http://www.w3.org/2000/svg" xmlns:svg="http://www.w3.org/2000/svg" xmlns:xlink="http://www.w3.org/1999/xlink" id="svg5" width="210mm" height="297mm" version="1.1" viewBox="0 0 210 297"><defs id="defs2"><linearGradient id="linearGradient2966"><stop style="stop-color:#7641bb;stop-opacity:1" id="stop2962" offset="0"/><stop style="stop-color:#7641bb;stop-opacity:0" id="stop2964" offset="1"/></linearGradient><linearGradient id="linearGradient38519"><stop style="stop-color:#683ba5;stop-opacity:1" id="stop38515" offset="0"/><stop style="stop-color:#683ba5;stop-opacity:0" id="stop38517" offset="1"/></linearGradient><linearGradient id="linearGradient20943"><stop style="stop-color:#732db7;stop-opacity:1" id="stop20939" offset="0"/><stop style="stop-color:#732db7;stop-opacity:0" id="stop20941" offset="1"/></linearGradient><linearGradient id="linearGradient15531"><stop style="stop-color:#9e53d3;stop-opacity:1" id="stop15527" offset="0"/><stop style="stop-color:#b986df;stop-opacity:1" id="stop15529" offset="1"/></linearGradient><linearGradient id="linearGradient15533" x1="190.229" x2="57.722" y1="78.464" y2="204.408" gradientTransform="matrix(0.12977522,0,0,0.1285953,16.273933,9.9055781)" gradientUnits="userSpaceOnUse" xlink:href="#linearGradient15531"/><linearGradient id="linearGradient20945" x1="67.927" x2="-37.699" y1="82.87" y2="245.894" gradientTransform="matrix(0.80848093,0,0,0.83654119,-3.1547587,29.307556)" gradientUnits="userSpaceOnUse" xlink:href="#linearGradient20943"/><linearGradient id="linearGradient38521" x1="59.629" x2="34.321" y1="119.778" y2="153.232" gradientTransform="matrix(0.52852071,0,0,0.52852071,27.349572,100.02917)" gradientUnits="userSpaceOnUse" xlink:href="#linearGradient38519"/><linearGradient id="linearGradient2968" x1="128.763" x2="462.239" y1="350.392" y2="485.005" gradientUnits="userSpaceOnUse" xlink:href="#linearGradient2966"/><linearGradient id="linearGradient3394" x1="128.763" x2="462.239" y1="350.392" y2="485.005" gradientUnits="userSpaceOnUse" xlink:href="#linearGradient2966"/><linearGradient id="linearGradient1294" x1="59.629" x2="34.321" y1="119.778" y2="153.232" gradientTransform="matrix(0.52852071,0,0,0.52852071,-3.6837289,-56.695056)" gradientUnits="userSpaceOnUse" xlink:href="#linearGradient38519"/></defs><g id="layer1"><rect style="opacity:1;fill:#fff;fill-opacity:1;stroke-width:.264583" id="rect5921" width="88.341" height="26.76" x="17.405" y="-13.507"/><rect style="opacity:1;fill:#7641bb;fill-opacity:1;stroke-width:.264982" id="rect15035" width="88.341" height="41.17" x="114.456" y="98.296"/><rect style="opacity:1;fill:#fff;fill-opacity:1;stroke-width:.264583" id="rect14752" width="88.341" height="26.76" x="17.405" y="69.948"/><rect style="opacity:1;fill:#fff;fill-opacity:1;stroke-width:.264583" id="rect14750" width="88.341" height="26.76" x="17.405" y="13.253"/><rect style="opacity:1;fill:#fff;fill-opacity:1;stroke-width:.264583" id="rect14730" width="88.341" height="26.76" x="17.405" y="41.6"/><rect style="opacity:1;fill:#fff;fill-opacity:1;stroke-width:.264982" id="rect14931" width="88.341" height="41.17" x="17.405" y="98.296"/><g id="g5648" transform="matrix(1.003019,0,0,1,-98.356791,89.644608)"><g id="g5566"><g id="g21109" transform="matrix(0.44184375,0,0,0.44184375,141.90848,-26.282656)" style="opacity:.803858"><circle style="fill:url(#linearGradient20945);fill-opacity:1;stroke:none;stroke-width:1.62108;stroke-miterlimit:4;stroke-dasharray:none" id="path18900" cx="39.702" cy="116.19" r="27.5"/><g id="g21095" transform="translate(3.0448808,71.62455)"><circle style="fill:#fff;fill-opacity:1;stroke-width:.0343508" id="circle21075" cx="21.106" cy="33.789" r="2.885"/><circle style="fill:#fff;fill-opacity:1;stroke-width:.0343508" id="circle21077" cx="27.258" cy="38.675" r="2.885"/><circle style="fill:#fff;fill-opacity:1;stroke-width:.0343508" id="circle21079" cx="27.258" cy="46.274" r="2.885"/><circle style="fill:#fff;fill-opacity:1;stroke-width:.0343508" id="circle21081" cx="34.587" cy="35.418" r="2.885"/><circle style="fill:#fff;fill-opacity:1;stroke-width:.0343508" id="circle21083" cx="34.587" cy="43.56" r="2.885"/><circle style="fill:#fff;fill-opacity:1;stroke-width:.0343508" id="circle21085" cx="34.587" cy="51.703" r="2.885"/><circle style="fill:#fff;fill-opacity:1;stroke-width:.0343508" id="circle21087" cx="41.282" cy="48.627" r="2.885"/><circle style="fill:#fff;fill-opacity:1;stroke-width:.0343508" id="circle21089" cx="41.282" cy="56.588" r="2.885"/><circle style="fill:none;fill-opacity:1;stroke:#fff;stroke-width:.683388;stroke-miterlimit:4;stroke-dasharray:none" id="circle21091" cx="51.867" cy="32.884" r="2.885"/><circle style="fill:#fff;fill-opacity:1;stroke-width:.0343508" id="circle21093" cx="34.587" cy="51.703" r="2.885"/></g></g></g><text xml:space="preserve" style="font-style:normal;font-weight:400;font-size:8.34988px;line-height:1.25;font-family:sans-serif;fill:#6220a4;fill-opacity:1;stroke:none;stroke-width:.208747" id="text22191" x="138" y="45.443"><tspan id="tspan22189" style="font-style:normal;font-variant:normal;font-weight:700;font-stretch:normal;font-family:'Intel Clear';-inkscape-font-specification:'Intel Clear';fill:#6220a4;fill-opacity:1;stroke-width:.208747" x="138" y="45.443">ANOMALIB</tspan></text></g><g id="g5676" transform="translate(0,-0.20204011)"><path id="ellipse172" style="fill:url(#linearGradient15533);fill-opacity:1;fill-rule:evenodd;stroke-width:.0543773" d="M 30.531537,14.907788 A 11.829642,11.829629 0 0 0 18.701856,26.737437 11.829642,11.829629 0 0 0 30.531537,38.567082 11.829642,11.829629 0 0 0 42.36115,26.737437 11.829642,11.829629 0 0 0 30.531537,14.907788 Z m 0,0.473215 A 11.356456,11.356444 0 0 1 41.887952,26.737437 11.356456,11.356444 0 0 1 30.531537,38.093932 11.356456,11.356444 0 0 1 19.175054,26.737437 11.356456,11.356444 0 0 1 30.531537,15.381003 Z m 0,0.412944 A 10.943494,10.943482 0 0 0 19.58803,26.737437 10.943494,10.943482 0 0 0 30.531537,37.680926 10.943494,10.943482 0 0 0 41.475044,26.737437 10.943494,10.943482 0 0 0 30.531537,15.793947 Z"/><g id="g20849" transform="matrix(0.39432157,0,0,0.39432157,16.416443,9.966797)"><circle style="fill:#fff;fill-opacity:1;stroke-width:.0343508" id="path16280" cx="21.106" cy="33.789" r="2.885"/><circle style="fill:#fff;fill-opacity:1;stroke-width:.0343508" id="circle16362" cx="27.258" cy="38.675" r="2.885"/><circle style="fill:#fff;fill-opacity:1;stroke-width:.0343508" id="circle16364" cx="27.258" cy="46.274" r="2.885"/><circle style="fill:#fff;fill-opacity:1;stroke-width:.0343508" id="circle16366" cx="34.587" cy="35.418" r="2.885"/><circle style="fill:#fff;fill-opacity:1;stroke-width:.0343508" id="circle16368" cx="34.587" cy="43.56" r="2.885"/><circle style="fill:#fff;fill-opacity:1;stroke-width:.0343508" id="circle16370" cx="34.587" cy="51.703" r="2.885"/><circle style="fill:#fff;fill-opacity:1;stroke-width:.0343508" id="circle16372" cx="41.282" cy="48.627" r="2.885"/><circle style="fill:#fff;fill-opacity:1;stroke-width:.0343508" id="circle16374" cx="41.282" cy="56.588" r="2.885"/><circle style="fill:none;fill-opacity:1;stroke:#fff;stroke-width:.683388;stroke-miterlimit:4;stroke-dasharray:none" id="circle18788" cx="51.867" cy="32.884" r="2.885"/><circle style="fill:#fff;fill-opacity:1;stroke-width:.0343508" id="circle18862" cx="34.587" cy="51.703" r="2.885"/></g></g><text xml:space="preserve" style="font-style:normal;font-weight:400;font-size:22.3461px;line-height:1.25;font-family:sans-serif;fill:#4d4d4d;fill-opacity:1;stroke:none;stroke-width:.558654" id="text28900" x="46.916" y="34.245"><tspan id="tspan28898" style="font-style:normal;font-variant:normal;font-weight:400;font-stretch:normal;font-family:'Intel Clear Pro';-inkscape-font-specification:'Intel Clear Pro';fill:#4d4d4d;fill-opacity:1;stroke-width:.558654" x="46.916" y="34.245">ANOMALIB</tspan></text><g id="g11502" transform="translate(-2.2819546,1.0583358)"><g id="g36298" transform="matrix(1.5819164,0,0,1.5819164,-9.499528,-44.32883)"><circle style="fill:#8625a7;fill-opacity:1;stroke-width:.0135453" id="circle34083" cx="20.407" cy="58.603" r="1.137"/><circle style="fill:#8625a7;fill-opacity:1;stroke-width:.0135453" id="circle34085" cx="22.833" cy="60.53" r="1.137"/><circle style="fill:#8625a7;fill-opacity:1;stroke-width:.0135453" id="circle34087" cx="22.833" cy="63.526" r="1.137"/><circle style="fill:#8625a7;fill-opacity:1;stroke-width:.0135453" id="circle34089" cx="25.723" cy="59.245" r="1.137"/><circle style="fill:#8625a7;fill-opacity:1;stroke-width:.0135453" id="circle34091" cx="25.723" cy="62.456" r="1.137"/><circle style="fill:#8625a7;fill-opacity:1;stroke-width:.0135453" id="circle34093" cx="25.723" cy="65.667" r="1.137"/><circle style="fill:#8625a7;fill-opacity:1;stroke-width:.0135453" id="circle34095" cx="28.363" cy="64.454" r="1.137"/><circle style="fill:#8625a7;fill-opacity:1;stroke-width:.0135453" id="circle34097" cx="28.363" cy="67.593" r="1.137"/><circle style="fill:none;fill-opacity:1;stroke:#8625a7;stroke-width:.269475;stroke-miterlimit:4;stroke-dasharray:none;stroke-opacity:1" id="circle34099" cx="32.537" cy="58.246" r="1.137"/><circle style="fill:#8625a7;fill-opacity:1;stroke-width:.0135453" id="circle34101" cx="25.723" cy="65.667" r="1.137"/></g><text xml:space="preserve" style="font-style:normal;font-weight:400;font-size:20.0608px;line-height:1.25;font-family:sans-serif;fill:#4d4d4d;fill-opacity:1;stroke:none;stroke-width:.50152" id="text36317" x="47.431" y="62.02"><tspan id="tspan36315" style="font-style:normal;font-variant:normal;font-weight:400;font-stretch:normal;font-family:'Intel Clear Pro';-inkscape-font-specification:'Intel Clear Pro';fill:#4d4d4d;fill-opacity:1;stroke-width:.50152" x="47.431" y="62.02">ANOMALIB</tspan></text></g><rect style="opacity:1;fill:#fff;fill-opacity:1;stroke-width:.264982" id="rect16775" width="88.341" height="41.17" x="17.405" y="183.812"/><g id="g16900" transform="translate(0,0.5291809)"><g id="g39519" transform="matrix(1.5819164,0,0,1.5819164,19.59194,98.977515)"><circle style="fill:#8625a7;fill-opacity:1;stroke-width:.0135453" id="circle39499" cx="20.407" cy="58.603" r="1.137"/><circle style="fill:#8625a7;fill-opacity:1;stroke-width:.0135453" id="circle39501" cx="22.833" cy="60.53" r="1.137"/><circle style="fill:#8625a7;fill-opacity:1;stroke-width:.0135453" id="circle39503" cx="22.833" cy="63.526" r="1.137"/><circle style="fill:#8625a7;fill-opacity:1;stroke-width:.0135453" id="circle39505" cx="25.723" cy="59.245" r="1.137"/><circle style="fill:#8625a7;fill-opacity:1;stroke-width:.0135453" id="circle39507" cx="25.723" cy="62.456" r="1.137"/><circle style="fill:#8625a7;fill-opacity:1;stroke-width:.0135453" id="circle39509" cx="25.723" cy="65.667" r="1.137"/><circle style="fill:#8625a7;fill-opacity:1;stroke-width:.0135453" id="circle39511" cx="28.363" cy="64.454" r="1.137"/><circle style="fill:#8625a7;fill-opacity:1;stroke-width:.0135453" id="circle39513" cx="28.363" cy="67.593" r="1.137"/><circle style="fill:none;fill-opacity:1;stroke:#8625a7;stroke-width:.269475;stroke-miterlimit:4;stroke-dasharray:none;stroke-opacity:1" id="circle39515" cx="32.537" cy="58.246" r="1.137"/><circle style="fill:#8625a7;fill-opacity:1;stroke-width:.0135453" id="circle39517" cx="25.723" cy="65.667" r="1.137"/></g><text xml:space="preserve" style="font-style:normal;font-weight:400;font-size:8.34988px;line-height:1.25;font-family:sans-serif;fill:#4d4d4d;fill-opacity:1;stroke:none;stroke-width:.208747" id="text180" x="40.124" y="218.504"><tspan id="tspan178" style="font-style:normal;font-variant:normal;font-weight:700;font-stretch:normal;font-family:'Intel Clear';-inkscape-font-specification:'Intel Clear';fill:#4d4d4d;fill-opacity:1;stroke-width:.208747" x="40.124" y="218.504">ANOMALIB</tspan></text></g><rect style="opacity:1;fill:#fff;fill-opacity:1;stroke-width:.264982" id="rect16885" width="88.341" height="41.17" x="17.405" y="226.57"/><g id="g5611" transform="translate(-102.10423,104.31235)"><g id="g5594"><path style="opacity:.832797;fill:url(#linearGradient2968);fill-opacity:1;fill-rule:evenodd" id="path367" d="m 230.36845,393.94943 -59.01608,15.10473 -42.58913,-43.55706 16.42696,-58.6618 59.01609,-15.10473 42.58912,43.55706 z" transform="matrix(-0.05495458,0.22215215,-0.22215215,-0.05495458,251.83925,116.54999)"/><g id="g36776" transform="matrix(0.494173,0,0,0.494173,146.58879,117.4991)"><circle style="fill:#fff;fill-opacity:1;stroke-width:.0343508" id="circle36756" cx="21.106" cy="33.789" r="2.885"/><circle style="fill:#fff;fill-opacity:1;stroke-width:.0343508" id="circle36758" cx="27.258" cy="38.675" r="2.885"/><circle style="fill:#fff;fill-opacity:1;stroke-width:.0343508" id="circle36760" cx="27.258" cy="46.274" r="2.885"/><circle style="fill:#fff;fill-opacity:1;stroke-width:.0343508" id="circle36762" cx="34.587" cy="35.418" r="2.885"/><circle style="fill:#fff;fill-opacity:1;stroke-width:.0343508" id="circle36764" cx="34.587" cy="43.56" r="2.885"/><circle style="fill:#fff;fill-opacity:1;stroke-width:.0343508" id="circle36766" cx="34.587" cy="51.703" r="2.885"/><circle style="fill:#fff;fill-opacity:1;stroke-width:.0343508" id="circle36768" cx="41.282" cy="48.627" r="2.885"/><circle style="fill:#fff;fill-opacity:1;stroke-width:.0343508" id="circle36770" cx="41.282" cy="56.588" r="2.885"/><circle style="fill:none;fill-opacity:1;stroke:#fff;stroke-width:.683388;stroke-miterlimit:4;stroke-dasharray:none" id="circle36772" cx="51.867" cy="32.884" r="2.885"/><circle style="fill:#fff;fill-opacity:1;stroke-width:.0343508" id="circle36774" cx="34.587" cy="51.703" r="2.885"/></g></g><text xml:space="preserve" style="font-style:normal;font-weight:400;font-size:8.34988px;line-height:1.25;font-family:sans-serif;fill:#4d4d4d;fill-opacity:1;stroke:none;stroke-width:.208747" id="text3334" x="142.229" y="160.491"><tspan id="tspan3332" style="font-style:normal;font-variant:normal;font-weight:700;font-stretch:normal;font-family:'Intel Clear';-inkscape-font-specification:'Intel Clear';fill:#4d4d4d;fill-opacity:1;stroke-width:.208747" x="142.229" y="160.491">ANOMALIB</tspan></text></g><rect style="opacity:1;fill:#fff;fill-opacity:1;stroke-width:.264982" id="rect16482" width="88.341" height="41.17" x="17.405" y="141.054"/><text xml:space="preserve" style="font-style:normal;font-weight:400;font-size:8.34988px;line-height:1.25;font-family:sans-serif;fill:#4d4d4d;fill-opacity:1;stroke:none;stroke-width:.208747" id="text38842" x="40.124" y="177.713"><tspan id="tspan38840" style="font-style:normal;font-variant:normal;font-weight:700;font-stretch:normal;font-family:'Intel Clear';-inkscape-font-specification:'Intel Clear';fill:#4d4d4d;fill-opacity:1;stroke-width:.208747" x="40.124" y="177.713">ANOMALIB</tspan></text><text xml:space="preserve" style="font-style:normal;font-weight:400;font-size:8.34988px;line-height:1.25;font-family:sans-serif;fill:#4d4d4d;fill-opacity:1;stroke:none;stroke-width:.208747" id="text39557" x="40.124" y="177.713"><tspan id="tspan39555" style="font-style:normal;font-variant:normal;font-weight:700;font-stretch:normal;font-family:'Intel Clear';-inkscape-font-specification:'Intel Clear';fill:#4d4d4d;fill-opacity:1;stroke-width:.208747" x="40.124" y="177.713">ANOMALIB</tspan></text><rect style="opacity:.819936;fill:url(#linearGradient38521);fill-opacity:1;stroke:none;stroke-width:.526207;stroke-miterlimit:4;stroke-dasharray:none;stroke-opacity:1" id="rect36353" width="23.512" height="23.512" x="49.819" y="145.439" ry="2.54"/><g id="g3368" transform="matrix(0.494173,0,0,0.494173,44.090152,136.05425)"><circle style="fill:#fff;fill-opacity:1;stroke-width:.0343508" id="circle3348" cx="21.106" cy="33.789" r="2.885"/><circle style="fill:#fff;fill-opacity:1;stroke-width:.0343508" id="circle3350" cx="27.258" cy="38.675" r="2.885"/><circle style="fill:#fff;fill-opacity:1;stroke-width:.0343508" id="circle3352" cx="27.258" cy="46.274" r="2.885"/><circle style="fill:#fff;fill-opacity:1;stroke-width:.0343508" id="circle3354" cx="34.587" cy="35.418" r="2.885"/><circle style="fill:#fff;fill-opacity:1;stroke-width:.0343508" id="circle3356" cx="34.587" cy="43.56" r="2.885"/><circle style="fill:#fff;fill-opacity:1;stroke-width:.0343508" id="circle3358" cx="34.587" cy="51.703" r="2.885"/><circle style="fill:#fff;fill-opacity:1;stroke-width:.0343508" id="circle3360" cx="41.282" cy="48.627" r="2.885"/><circle style="fill:#fff;fill-opacity:1;stroke-width:.0343508" id="circle3362" cx="41.282" cy="56.588" r="2.885"/><circle style="fill:none;fill-opacity:1;stroke:#fff;stroke-width:.683388;stroke-miterlimit:4;stroke-dasharray:none" id="circle3364" cx="51.867" cy="32.884" r="2.885"/><circle style="fill:#fff;fill-opacity:1;stroke-width:.0343508" id="circle3366" cx="34.587" cy="51.703" r="2.885"/></g><g id="g11487" transform="translate(-0.05338512,-0.52916667)"><g id="g5662" transform="matrix(0.90014945,0,0,0.90014945,1.8727212,7.1339096)"><path style="opacity:.832797;fill:url(#linearGradient3394);fill-opacity:1;fill-rule:evenodd" id="path3370" d="m 230.36845,393.94943 -59.01608,15.10473 -42.58913,-43.55706 16.42696,-58.6618 59.01609,-15.10473 42.58912,43.55706 z" transform="matrix(-0.05495458,0.22215215,-0.22215215,-0.05495458,119.0441,62.926579)"/><g id="g3392" transform="matrix(0.494173,0,0,0.494173,13.79364,63.875689)"><circle style="fill:#fff;fill-opacity:1;stroke-width:.0343508" id="circle3372" cx="21.106" cy="33.789" r="2.885"/><circle style="fill:#fff;fill-opacity:1;stroke-width:.0343508" id="circle3374" cx="27.258" cy="38.675" r="2.885"/><circle style="fill:#fff;fill-opacity:1;stroke-width:.0343508" id="circle3376" cx="27.258" cy="46.274" r="2.885"/><circle style="fill:#fff;fill-opacity:1;stroke-width:.0343508" id="circle3378" cx="34.587" cy="35.418" r="2.885"/><circle style="fill:#fff;fill-opacity:1;stroke-width:.0343508" id="circle3380" cx="34.587" cy="43.56" r="2.885"/><circle style="fill:#fff;fill-opacity:1;stroke-width:.0343508" id="circle3382" cx="34.587" cy="51.703" r="2.885"/><circle style="fill:#fff;fill-opacity:1;stroke-width:.0343508" id="circle3384" cx="41.282" cy="48.627" r="2.885"/><circle style="fill:#fff;fill-opacity:1;stroke-width:.0343508" id="circle3386" cx="41.282" cy="56.588" r="2.885"/><circle style="fill:none;fill-opacity:1;stroke:#fff;stroke-width:.683388;stroke-miterlimit:4;stroke-dasharray:none" id="circle3388" cx="51.867" cy="32.884" r="2.885"/><circle style="fill:#fff;fill-opacity:1;stroke-width:.0343508" id="circle3390" cx="34.587" cy="51.703" r="2.885"/></g></g><text xml:space="preserve" style="font-style:normal;font-weight:400;font-size:20.0608px;line-height:1.25;font-family:sans-serif;letter-spacing:1.32292px;fill:#4d4d4d;fill-opacity:1;stroke:none;stroke-width:.50152" id="text5551" x="44.748" y="90.915"><tspan id="tspan5549" style="font-style:normal;font-variant:normal;font-weight:400;font-stretch:normal;font-family:'Intel Clear Pro';-inkscape-font-specification:'Intel Clear Pro';fill:#4d4d4d;fill-opacity:1;stroke-width:.50152" x="44.748" y="90.915">ANOMALIB</tspan></text></g><rect style="opacity:1;fill:#7641bb;fill-opacity:1;stroke-width:.264583" id="rect11809" width="88.341" height="26.76" x="114.456" y="13.455"/><path id="path12185" style="fill:#fff;fill-opacity:1;fill-rule:evenodd;stroke-width:.055069" d="m 127.96191,15.754655 a 11.925486,12.034895 0 0 0 -11.92552,12.03492 11.925486,12.034895 0 0 0 11.92552,12.03491 11.925486,12.034895 0 0 0 11.92546,-12.03491 11.925486,12.034895 0 0 0 -11.92546,-12.03492 z m 0,0.48143 a 11.448466,11.553498 0 0 1 11.44843,11.55349 11.448466,11.553498 0 0 1 -11.44843,11.55355 11.448466,11.553498 0 0 1 -11.44849,-11.55355 11.448466,11.553498 0 0 1 11.44849,-11.55349 z m 0,0.42011 a 11.032158,11.133371 0 0 0 -11.03217,11.13338 11.032158,11.133371 0 0 0 11.03217,11.13338 11.032158,11.133371 0 0 0 11.03217,-11.13338 11.032158,11.133371 0 0 0 -11.03217,-11.13338 z"/><g id="g13347" transform="translate(-0.40293977,-0.57904204)"><circle style="fill:none;fill-opacity:1;stroke:#8d60c6;stroke-width:.269475;stroke-miterlimit:4;stroke-dasharray:none;stroke-opacity:1" id="circle11909" cx="134.362" cy="23.762" r="1.137"/><g id="g12693"><circle style="fill:#8d60c6;fill-opacity:1;stroke-width:.0135453" id="circle11893" cx="122.233" cy="24.119" r="1.137"/><circle style="fill:#8d60c6;fill-opacity:1;stroke-width:.0135453" id="circle11895" cx="124.659" cy="26.046" r="1.137"/><circle style="fill:#8d60c6;fill-opacity:1;stroke-width:.0135453" id="circle11897" cx="124.659" cy="29.042" r="1.137"/><circle style="fill:#8d60c6;fill-opacity:1;stroke-width:.0135453" id="circle11899" cx="127.548" cy="24.761" r="1.137"/><circle style="fill:#8d60c6;fill-opacity:1;stroke-width:.0135453" id="circle11901" cx="127.548" cy="27.972" r="1.137"/><circle style="fill:#8d60c6;fill-opacity:1;stroke-width:.0135453" id="circle11903" cx="127.548" cy="31.183" r="1.137"/><circle style="fill:#8d60c6;fill-opacity:1;stroke-width:.0135453" id="circle11905" cx="130.188" cy="29.97" r="1.137"/><circle style="fill:#8d60c6;fill-opacity:1;stroke-width:.0135453" id="circle11907" cx="130.188" cy="33.109" r="1.137"/><circle style="fill:#8d60c6;fill-opacity:1;stroke-width:.0135453" id="circle11911" cx="127.548" cy="31.183" r="1.137"/></g></g><text xml:space="preserve" style="font-style:normal;font-weight:400;font-size:22.3461px;line-height:1.25;font-family:sans-serif;fill:#fff;fill-opacity:1;stroke:none;stroke-width:.558654" id="text11919" x="144.41" y="35.276"><tspan id="tspan11917" style="font-style:normal;font-variant:normal;font-weight:400;font-stretch:normal;font-family:'Intel Clear Pro';-inkscape-font-specification:'Intel Clear Pro';fill:#fff;fill-opacity:1;stroke-width:.558654" x="144.41" y="35.276">ANOMALIB</tspan></text><g id="g17355" transform="translate(0,1.0583344)"><rect style="opacity:1;fill:#7641bb;fill-opacity:1;stroke-width:.264583" id="rect13349" width="88.341" height="26.76" x="114.456" y="40.542"/><g id="g16830"><circle style="fill:#fff;fill-opacity:1;stroke-width:.0214275" id="circle13459" cx="120.743" cy="47.845" r="1.799"/><circle style="fill:#fff;fill-opacity:1;stroke-width:.0214275" id="circle13461" cx="124.581" cy="50.892" r="1.799"/><circle style="fill:#fff;fill-opacity:1;stroke-width:.0214275" id="circle13463" cx="124.581" cy="55.633" r="1.799"/><circle style="fill:#fff;fill-opacity:1;stroke-width:.0214275" id="circle13465" cx="129.152" cy="48.861" r="1.799"/><circle style="fill:#fff;fill-opacity:1;stroke-width:.0214275" id="circle13467" cx="129.152" cy="53.94" r="1.799"/><circle style="fill:#fff;fill-opacity:1;stroke-width:.0214275" id="circle13469" cx="129.152" cy="59.019" r="1.799"/><circle style="fill:#fff;fill-opacity:1;stroke-width:.0214275" id="circle13471" cx="133.328" cy="57.1" r="1.799"/><circle style="fill:#fff;fill-opacity:1;stroke-width:.0214275" id="circle13473" cx="133.328" cy="62.067" r="1.799"/><circle style="fill:none;fill-opacity:1;stroke:#fff;stroke-width:.426287;stroke-miterlimit:4;stroke-dasharray:none;stroke-opacity:1" id="circle13475" cx="139.931" cy="47.28" r="1.799"/><circle style="fill:#fff;fill-opacity:1;stroke-width:.0214275" id="circle13477" cx="129.152" cy="59.019" r="1.799"/></g><text xml:space="preserve" style="font-style:normal;font-weight:400;font-size:20.0608px;line-height:1.25;font-family:sans-serif;fill:#fff;fill-opacity:1;stroke:none;stroke-width:.50152" id="text13483" x="145.391" y="61.488"><tspan id="tspan13481" style="font-style:normal;font-variant:normal;font-weight:400;font-stretch:normal;font-family:'Intel Clear Pro';-inkscape-font-specification:'Intel Clear Pro';fill:#fff;fill-opacity:1;stroke-width:.50152" x="145.391" y="61.488">ANOMALIB</tspan></text></g><g id="g17373" transform="translate(0,-0.52916718)"><rect style="opacity:1;fill:#7641bb;fill-opacity:1;stroke-width:.264583" id="rect14754" width="88.341" height="26.76" x="114.456" y="70.477"/><path style="opacity:1;fill:#fff;fill-opacity:1;fill-rule:evenodd" id="path14756" d="m 230.36845,393.94943 -59.01608,15.10473 -42.58913,-43.55706 16.42696,-58.6618 59.01609,-15.10473 42.58912,43.55706 z" transform="matrix(-0.04946733,0.19997014,-0.19997014,-0.04946733,205.84768,63.640056)"/><text xml:space="preserve" style="font-style:normal;font-weight:400;font-size:20.0608px;line-height:1.25;font-family:sans-serif;letter-spacing:1.32292px;fill:#fff;fill-opacity:1;stroke:none;stroke-width:.50152" id="text14784" x="141.565" y="90.778"><tspan id="tspan14782" style="font-style:normal;font-variant:normal;font-weight:400;font-stretch:normal;font-family:'Intel Clear Pro';-inkscape-font-specification:'Intel Clear Pro';fill:#fff;fill-opacity:1;stroke-width:.50152" x="141.565" y="90.778">ANOMALIB</tspan></text><g id="g14875" transform="translate(-1.8740919,55.488728)"><circle style="fill:none;fill-opacity:1;stroke:#8d60c6;stroke-width:.269475;stroke-miterlimit:4;stroke-dasharray:none;stroke-opacity:1" id="circle14853" cx="134.362" cy="23.762" r="1.137"/><g id="g14873"><circle style="fill:#8d60c6;fill-opacity:1;stroke-width:.0135453" id="circle14855" cx="122.233" cy="24.119" r="1.137"/><circle style="fill:#8d60c6;fill-opacity:1;stroke-width:.0135453" id="circle14857" cx="124.659" cy="26.046" r="1.137"/><circle style="fill:#8d60c6;fill-opacity:1;stroke-width:.0135453" id="circle14859" cx="124.659" cy="29.042" r="1.137"/><circle style="fill:#8d60c6;fill-opacity:1;stroke-width:.0135453" id="circle14861" cx="127.548" cy="24.761" r="1.137"/><circle style="fill:#8d60c6;fill-opacity:1;stroke-width:.0135453" id="circle14863" cx="127.548" cy="27.972" r="1.137"/><circle style="fill:#8d60c6;fill-opacity:1;stroke-width:.0135453" id="circle14865" cx="127.548" cy="31.183" r="1.137"/><circle style="fill:#8d60c6;fill-opacity:1;stroke-width:.0135453" id="circle14867" cx="130.188" cy="29.97" r="1.137"/><circle style="fill:#8d60c6;fill-opacity:1;stroke-width:.0135453" id="circle14869" cx="130.188" cy="33.109" r="1.137"/><circle style="fill:#8d60c6;fill-opacity:1;stroke-width:.0135453" id="circle14871" cx="127.548" cy="31.183" r="1.137"/></g></g></g><text xml:space="preserve" style="font-style:normal;font-weight:400;font-size:8.36247px;line-height:1.25;font-family:sans-serif;fill:#fff;fill-opacity:1;stroke:none;stroke-width:.209062" id="text15067" x="136.904" y="135.291" transform="scale(1.0015084,0.99849391)"><tspan id="tspan15065" style="font-style:normal;font-variant:normal;font-weight:700;font-stretch:normal;font-family:'Intel Clear';-inkscape-font-specification:'Intel Clear';fill:#fff;fill-opacity:1;stroke-width:.209062" x="136.904" y="135.291">ANOMALIB</tspan></text><circle style="opacity:1;fill:#fff;fill-opacity:1;stroke:none;stroke-width:.831482;stroke-opacity:1" id="path17469" cx="158.626" cy="114.7" r="12.188"/><g id="g16454" transform="translate(30.261485,86.331134)"><circle style="fill:none;fill-opacity:1;stroke:#8d60c6;stroke-width:.269475;stroke-miterlimit:4;stroke-dasharray:none;stroke-opacity:1" id="circle16432" cx="134.362" cy="23.762" r="1.137"/><g id="g16452"><circle style="fill:#8d60c6;fill-opacity:1;stroke-width:.0135453" id="circle16434" cx="122.233" cy="24.119" r="1.137"/><circle style="fill:#8d60c6;fill-opacity:1;stroke-width:.0135453" id="circle16436" cx="124.659" cy="26.046" r="1.137"/><circle style="fill:#8d60c6;fill-opacity:1;stroke-width:.0135453" id="circle16438" cx="124.659" cy="29.042" r="1.137"/><circle style="fill:#8d60c6;fill-opacity:1;stroke-width:.0135453" id="circle16440" cx="127.548" cy="24.761" r="1.137"/><circle style="fill:#8d60c6;fill-opacity:1;stroke-width:.0135453" id="circle16442" cx="127.548" cy="27.972" r="1.137"/><circle style="fill:#8d60c6;fill-opacity:1;stroke-width:.0135453" id="circle16444" cx="127.548" cy="31.183" r="1.137"/><circle style="fill:#8d60c6;fill-opacity:1;stroke-width:.0135453" id="circle16446" cx="130.188" cy="29.97" r="1.137"/><circle style="fill:#8d60c6;fill-opacity:1;stroke-width:.0135453" id="circle16448" cx="130.188" cy="33.109" r="1.137"/><circle style="fill:#8d60c6;fill-opacity:1;stroke-width:.0135453" id="circle16450" cx="127.548" cy="31.183" r="1.137"/></g></g><rect style="fill:#7641bb;fill-opacity:1;stroke-width:.264982" id="rect16484" width="88.341" height="41.17" x="114.456" y="141.054"/><text xml:space="preserve" style="font-style:normal;font-weight:400;font-size:8.34988px;line-height:1.25;font-family:sans-serif;fill:#4d4d4d;fill-opacity:1;stroke:none;stroke-width:.208747" id="text16488" x="137.175" y="177.713"><tspan id="tspan16486" style="font-style:normal;font-variant:normal;font-weight:700;font-stretch:normal;font-family:'Intel Clear';-inkscape-font-specification:'Intel Clear';fill:#4d4d4d;fill-opacity:1;stroke-width:.208747" x="137.175" y="177.713">ANOMALIB</tspan></text><text xml:space="preserve" style="font-style:normal;font-weight:400;font-size:8.34988px;line-height:1.25;font-family:sans-serif;fill:#fff;fill-opacity:1;stroke:none;stroke-width:.208747" id="text16492" x="137.175" y="177.713"><tspan id="tspan16490" style="font-style:normal;font-variant:normal;font-weight:700;font-stretch:normal;font-family:'Intel Clear';-inkscape-font-specification:'Intel Clear';fill:#fff;fill-opacity:1;stroke-width:.208747" x="137.175" y="177.713">ANOMALIB</tspan></text><rect style="fill:#fff;fill-opacity:1;stroke:none;stroke-width:.526207;stroke-miterlimit:4;stroke-dasharray:none;stroke-opacity:1" id="rect16494" width="23.512" height="23.512" x="146.87" y="145.439" ry="2.54"/><g id="g16593" transform="translate(30.261487,128.82662)"><circle style="fill:none;fill-opacity:1;stroke:#8d60c6;stroke-width:.269475;stroke-miterlimit:4;stroke-dasharray:none;stroke-opacity:1" id="circle16571" cx="134.362" cy="23.762" r="1.137"/><g id="g16591"><circle style="fill:#8d60c6;fill-opacity:1;stroke-width:.0135453" id="circle16573" cx="122.233" cy="24.119" r="1.137"/><circle style="fill:#8d60c6;fill-opacity:1;stroke-width:.0135453" id="circle16575" cx="124.659" cy="26.046" r="1.137"/><circle style="fill:#8d60c6;fill-opacity:1;stroke-width:.0135453" id="circle16577" cx="124.659" cy="29.042" r="1.137"/><circle style="fill:#8d60c6;fill-opacity:1;stroke-width:.0135453" id="circle16579" cx="127.548" cy="24.761" r="1.137"/><circle style="fill:#8d60c6;fill-opacity:1;stroke-width:.0135453" id="circle16581" cx="127.548" cy="27.972" r="1.137"/><circle style="fill:#8d60c6;fill-opacity:1;stroke-width:.0135453" id="circle16583" cx="127.548" cy="31.183" r="1.137"/><circle style="fill:#8d60c6;fill-opacity:1;stroke-width:.0135453" id="circle16585" cx="130.188" cy="29.97" r="1.137"/><circle style="fill:#8d60c6;fill-opacity:1;stroke-width:.0135453" id="circle16587" cx="130.188" cy="33.109" r="1.137"/><circle style="fill:#8d60c6;fill-opacity:1;stroke-width:.0135453" id="circle16589" cx="127.548" cy="31.183" r="1.137"/></g></g><g id="g17427" transform="translate(0,0.52915955)"><rect style="opacity:1;fill:#7641bb;fill-opacity:1;stroke-width:.264982" id="rect16777" width="88.341" height="41.17" x="114.456" y="183.282"/><text xml:space="preserve" style="font-style:normal;font-weight:400;font-size:8.34988px;line-height:1.25;font-family:sans-serif;fill:#fff;fill-opacity:1;stroke:none;stroke-width:.208747" id="text16803" x="137.175" y="218.504"><tspan id="tspan16801" style="font-style:normal;font-variant:normal;font-weight:700;font-stretch:normal;font-family:'Intel Clear';-inkscape-font-specification:'Intel Clear';fill:#fff;fill-opacity:1;stroke-width:.208747" x="137.175" y="218.504">ANOMALIB</tspan></text><g id="g16852" transform="translate(28.182704,143.83813)"><circle style="fill:#fff;fill-opacity:1;stroke-width:.0214275" id="circle16832" cx="120.743" cy="47.845" r="1.799"/><circle style="fill:#fff;fill-opacity:1;stroke-width:.0214275" id="circle16834" cx="124.581" cy="50.892" r="1.799"/><circle style="fill:#fff;fill-opacity:1;stroke-width:.0214275" id="circle16836" cx="124.581" cy="55.633" r="1.799"/><circle style="fill:#fff;fill-opacity:1;stroke-width:.0214275" id="circle16838" cx="129.152" cy="48.861" r="1.799"/><circle style="fill:#fff;fill-opacity:1;stroke-width:.0214275" id="circle16840" cx="129.152" cy="53.94" r="1.799"/><circle style="fill:#fff;fill-opacity:1;stroke-width:.0214275" id="circle16842" cx="129.152" cy="59.019" r="1.799"/><circle style="fill:#fff;fill-opacity:1;stroke-width:.0214275" id="circle16844" cx="133.328" cy="57.1" r="1.799"/><circle style="fill:#fff;fill-opacity:1;stroke-width:.0214275" id="circle16846" cx="133.328" cy="62.067" r="1.799"/><circle style="fill:none;fill-opacity:1;stroke:#fff;stroke-width:.426287;stroke-miterlimit:4;stroke-dasharray:none;stroke-opacity:1" id="circle16848" cx="139.931" cy="47.28" r="1.799"/><circle style="fill:#fff;fill-opacity:1;stroke-width:.0214275" id="circle16850" cx="129.152" cy="59.019" r="1.799"/></g></g><g id="g17445" transform="translate(0,1.0583191)"><rect style="opacity:1;fill:#7641bb;fill-opacity:1;stroke-width:.264982" id="rect16902" width="88.341" height="41.17" x="114.456" y="225.511"/><path style="opacity:1;fill:#fff;fill-opacity:1;fill-rule:evenodd" id="path16904" d="m 230.36845,393.94943 -59.01608,15.10473 -42.58913,-43.55706 16.42696,-58.6618 59.01609,-15.10473 42.58912,43.55706 z" transform="matrix(-0.05495458,0.22215215,-0.22215215,-0.05495458,246.78606,219.80397)"/><text xml:space="preserve" style="font-style:normal;font-weight:400;font-size:8.34988px;line-height:1.25;font-family:sans-serif;fill:#fff;fill-opacity:1;stroke:none;stroke-width:.208747" id="text16932" x="137.175" y="263.745"><tspan id="tspan16930" style="font-style:normal;font-variant:normal;font-weight:700;font-stretch:normal;font-family:'Intel Clear';-inkscape-font-specification:'Intel Clear';fill:#fff;fill-opacity:1;stroke-width:.208747" x="137.175" y="263.745">ANOMALIB</tspan></text><g id="g17077" transform="translate(30.261489,213.89527)"><circle style="fill:none;fill-opacity:1;stroke:#8d60c6;stroke-width:.269475;stroke-miterlimit:4;stroke-dasharray:none;stroke-opacity:1" id="circle17055" cx="134.362" cy="23.762" r="1.137"/><g id="g17075"><circle style="fill:#8d60c6;fill-opacity:1;stroke-width:.0135453" id="circle17057" cx="122.233" cy="24.119" r="1.137"/><circle style="fill:#8d60c6;fill-opacity:1;stroke-width:.0135453" id="circle17059" cx="124.659" cy="26.046" r="1.137"/><circle style="fill:#8d60c6;fill-opacity:1;stroke-width:.0135453" id="circle17061" cx="124.659" cy="29.042" r="1.137"/><circle style="fill:#8d60c6;fill-opacity:1;stroke-width:.0135453" id="circle17063" cx="127.548" cy="24.761" r="1.137"/><circle style="fill:#8d60c6;fill-opacity:1;stroke-width:.0135453" id="circle17065" cx="127.548" cy="27.972" r="1.137"/><circle style="fill:#8d60c6;fill-opacity:1;stroke-width:.0135453" id="circle17067" cx="127.548" cy="31.183" r="1.137"/><circle style="fill:#8d60c6;fill-opacity:1;stroke-width:.0135453" id="circle17069" cx="130.188" cy="29.97" r="1.137"/><circle style="fill:#8d60c6;fill-opacity:1;stroke-width:.0135453" id="circle17071" cx="130.188" cy="33.109" r="1.137"/><circle style="fill:#8d60c6;fill-opacity:1;stroke-width:.0135453" id="circle17073" cx="127.548" cy="31.183" r="1.137"/></g></g></g><rect style="opacity:.819936;fill:url(#linearGradient1294);fill-opacity:1;stroke:none;stroke-width:.526207;stroke-miterlimit:4;stroke-dasharray:none;stroke-opacity:1" id="rect1292" width="23.512" height="23.512" x="18.786" y="-11.285" ry="2.54"/><g id="g3996"><circle style="fill:#fff;fill-opacity:1;stroke-width:.0152803" id="circle1143" cx="23.624" cy="-4.323" r="1.283"/><circle style="fill:#fff;fill-opacity:1;stroke-width:.0152803" id="circle1145" cx="26.361" cy="-2.149" r="1.283"/><circle style="fill:#fff;fill-opacity:1;stroke-width:.0152803" id="circle1147" cx="26.361" cy="1.231" r="1.283"/><circle style="fill:#fff;fill-opacity:1;stroke-width:.0152803" id="circle1149" cx="29.621" cy="-3.598" r="1.283"/><circle style="fill:#fff;fill-opacity:1;stroke-width:.0152803" id="circle1151" cx="29.621" cy=".024" r="1.283"/><circle style="fill:#fff;fill-opacity:1;stroke-width:.0152803" id="circle1153" cx="29.621" cy="3.646" r="1.283"/><circle style="fill:#fff;fill-opacity:1;stroke-width:.0152803" id="circle1155" cx="32.599" cy="2.278" r="1.283"/><circle style="fill:#fff;fill-opacity:1;stroke-width:.0152803" id="circle1157" cx="32.599" cy="5.819" r="1.283"/><circle style="fill:none;fill-opacity:1;stroke:#fff;stroke-width:.303991;stroke-miterlimit:4;stroke-dasharray:none" id="circle1159" cx="37.308" cy="-4.725" r="1.283"/><circle style="fill:#fff;fill-opacity:1;stroke-width:.0152803" id="circle1161" cx="29.621" cy="3.646" r="1.283"/></g><text xml:space="preserve" style="font-style:normal;font-weight:400;font-size:20.0608px;line-height:1.25;font-family:sans-serif;letter-spacing:1.05833333px;fill:#999;fill-opacity:.81960785;stroke:none;stroke-width:.50152" id="text1169" x="44.695" y="6.931"><tspan id="tspan1167" style="font-style:normal;font-variant:normal;font-weight:400;font-stretch:normal;font-family:'Intel Clear Pro';-inkscape-font-specification:'Intel Clear Pro';fill:#999;fill-opacity:.81960785;stroke-width:.50152" x="44.695" y="6.931">ANOMALIB</tspan></text><rect style="fill:#7641bb;fill-opacity:1;stroke-width:.264583" id="rect1173" width="88.341" height="26.76" x="114.456" y="-13.507"/><text xml:space="preserve" style="font-style:normal;font-weight:400;font-size:20.0608px;line-height:1.25;font-family:sans-serif;letter-spacing:1.32292px;fill:#fff;fill-opacity:1;stroke:none;stroke-width:.50152" id="text1179" x="141.565" y="6.794"><tspan id="tspan1177" style="font-style:normal;font-variant:normal;font-weight:400;font-stretch:normal;font-family:'Intel Clear Pro';-inkscape-font-specification:'Intel Clear Pro';fill:#fff;fill-opacity:1;stroke-width:.50152" x="141.565" y="6.794">ANOMALIB</tspan></text><rect style="fill:#fff;fill-opacity:1;stroke:none;stroke-width:.526207;stroke-miterlimit:4;stroke-dasharray:none;stroke-opacity:1" id="rect5941" width="23.512" height="23.512" x="114.735" y="-11.883" ry="2.54"/><g id="g1203" transform="translate(-1.8740881,-28.495831)"><circle style="fill:none;fill-opacity:1;stroke:#8d60c6;stroke-width:.269475;stroke-miterlimit:4;stroke-dasharray:none;stroke-opacity:1" id="circle1181" cx="134.362" cy="23.762" r="1.137"/><g id="g1201"><circle style="fill:#8d60c6;fill-opacity:1;stroke-width:.0135453" id="circle1183" cx="122.233" cy="24.119" r="1.137"/><circle style="fill:#8d60c6;fill-opacity:1;stroke-width:.0135453" id="circle1185" cx="124.659" cy="26.046" r="1.137"/><circle style="fill:#8d60c6;fill-opacity:1;stroke-width:.0135453" id="circle1187" cx="124.659" cy="29.042" r="1.137"/><circle style="fill:#8d60c6;fill-opacity:1;stroke-width:.0135453" id="circle1189" cx="127.548" cy="24.761" r="1.137"/><circle style="fill:#8d60c6;fill-opacity:1;stroke-width:.0135453" id="circle1191" cx="127.548" cy="27.972" r="1.137"/><circle style="fill:#8d60c6;fill-opacity:1;stroke-width:.0135453" id="circle1193" cx="127.548" cy="31.183" r="1.137"/><circle style="fill:#8d60c6;fill-opacity:1;stroke-width:.0135453" id="circle1195" cx="130.188" cy="29.97" r="1.137"/><circle style="fill:#8d60c6;fill-opacity:1;stroke-width:.0135453" id="circle1197" cx="130.188" cy="33.109" r="1.137"/><circle style="fill:#8d60c6;fill-opacity:1;stroke-width:.0135453" id="circle1199" cx="127.548" cy="31.183" r="1.137"/></g></g></g></svg>